<svg width="1280" height="640" viewBox="0 0 1280 640" fill="none" xmlns="http://www.w3.org/2000/svg">
  <defs>
    <linearGradient id="bgGrad" x1="0" y1="0" x2="1" y2="1">
      <stop offset="0%" stop-color="#05070D"/>
      <stop offset="50%" stop-color="#0A0D17"/>
      <stop offset="100%" stop-color="#05070D"/>
    </linearGradient>
    <linearGradient id="brandGrad" x1="0" y1="0" x2="1" y2="1">
      <stop offset="0%" stop-color="#3B82F6"/>
      <stop offset="50%" stop-color="#6366F1"/>
      <stop offset="100%" stop-color="#8B5CF6"/>
    </linearGradient>
    <linearGradient id="divider" x1="0" y1="0" x2="1" y2="0">
      <stop offset="0%" stop-color="#3B82F6" stop-opacity="0"/>
      <stop offset="25%" stop-color="#3B82F6" stop-opacity="0.6"/>
      <stop offset="75%" stop-color="#8B5CF6" stop-opacity="0.6"/>
      <stop offset="100%" stop-color="#8B5CF6" stop-opacity="0"/>
    </linearGradient>
    <filter id="glow"><feGaussianBlur stdDeviation="6" result="b"/><feMerge><feMergeNode in="b"/><feMergeNode in="SourceGraphic"/></feMerge></filter>
    <filter id="shadow"><feDropShadow dx="0" dy="6" stdDeviation="14" flood-color="#3B82F6" flood-opacity="0.25"/></filter>
  </defs>

  <rect width="1280" height="640" fill="url(#bgGrad)"/>

  <!-- Grid -->
  <g opacity="0.04">
    <line x1="0" y1="80" x2="1280" y2="80" stroke="#3B82F6" stroke-width="0.5"/>
    <line x1="0" y1="160" x2="1280" y2="160" stroke="#3B82F6" stroke-width="0.5"/>
    <line x1="0" y1="240" x2="1280" y2="240" stroke="#3B82F6" stroke-width="0.5"/>
    <line x1="0" y1="320" x2="1280" y2="320" stroke="#3B82F6" stroke-width="0.5"/>
    <line x1="0" y1="400" x2="1280" y2="400" stroke="#3B82F6" stroke-width="0.5"/>
    <line x1="0" y1="480" x2="1280" y2="480" stroke="#3B82F6" stroke-width="0.5"/>
    <line x1="0" y1="560" x2="1280" y2="560" stroke="#3B82F6" stroke-width="0.5"/>
    <line x1="160" y1="0" x2="160" y2="640" stroke="#3B82F6" stroke-width="0.5"/>
    <line x1="320" y1="0" x2="320" y2="640" stroke="#3B82F6" stroke-width="0.5"/>
    <line x1="480" y1="0" x2="480" y2="640" stroke="#3B82F6" stroke-width="0.5"/>
    <line x1="640" y1="0" x2="640" y2="640" stroke="#3B82F6" stroke-width="0.5"/>
    <line x1="800" y1="0" x2="800" y2="640" stroke="#3B82F6" stroke-width="0.5"/>
    <line x1="960" y1="0" x2="960" y2="640" stroke="#3B82F6" stroke-width="0.5"/>
    <line x1="1120" y1="0" x2="1120" y2="640" stroke="#3B82F6" stroke-width="0.5"/>
  </g>

  <!-- Top accent -->
  <rect x="0" y="0" width="1280" height="2" fill="url(#divider)"/>

  <!-- Logo glyph -->
  <g filter="url(#shadow)">
    <rect x="80" y="70" width="80" height="80" rx="20" fill="#0A0D17" stroke="url(#brandGrad)" stroke-width="2"/>
    <path d="M100 96 L120 116 L100 136 M124 116 L140 116" stroke="#3B82F6" stroke-width="3" stroke-linecap="round" stroke-linejoin="round" fill="none"/>
    <path d="M100 96 L84 116 L100 136" stroke="#6366F1" stroke-width="3" stroke-linecap="round" stroke-linejoin="round" fill="none" opacity="0.55"/>
  </g>

  <!-- Title -->
  <text x="190" y="105" font-family="'Plus Jakarta Sans', system-ui, sans-serif" font-size="56" font-weight="800" fill="#FAFAFA" letter-spacing="-1.2">GenID</text>
  <text x="190" y="142" font-family="'Plus Jakarta Sans', system-ui, sans-serif" font-size="22" font-weight="600" fill="#A1A1AA">The Agentic Identity Fabric</text>

  <!-- Tagline -->
  <text x="190" y="178" font-family="'JetBrains Mono', monospace" font-size="13" fill="#3B82F6" letter-spacing="0.8">GRAPH-NATIVE · POLICY-AS-CODE · REAL-TIME GOVERNANCE</text>

  <!-- Metric cards -->
  <g filter="url(#shadow)">
    <rect x="190" y="220" width="200" height="100" rx="12" fill="#0F1320" stroke="#3B82F6" stroke-opacity="0.3" stroke-width="1"/>
    <text x="210" y="252" font-family="'JetBrains Mono', monospace" font-size="36" font-weight="700" fill="#60A5FA">109<tspan font-size="20">ms</tspan></text>
    <text x="210" y="288" font-family="'Plus Jakarta Sans', sans-serif" font-size="13" font-weight="500" fill="#A1A1AA">Identity kill switch</text>
    <text x="210" y="306" font-family="'JetBrains Mono', monospace" font-size="10" fill="#52525B">Temporal + Redis JTI</text>
  </g>

  <g filter="url(#shadow)">
    <rect x="410" y="220" width="200" height="100" rx="12" fill="#0F1320" stroke="#8B5CF6" stroke-opacity="0.3" stroke-width="1"/>
    <text x="430" y="252" font-family="'JetBrains Mono', monospace" font-size="36" font-weight="700" fill="#A78BFA">28<tspan font-size="20"> tb</tspan></text>
    <text x="430" y="288" font-family="'Plus Jakarta Sans', sans-serif" font-size="13" font-weight="500" fill="#A1A1AA">RLS multi-tenancy</text>
    <text x="430" y="306" font-family="'JetBrains Mono', monospace" font-size="10" fill="#52525B">56 policies · Postgres</text>
  </g>

  <g filter="url(#shadow)">
    <rect x="630" y="220" width="200" height="100" rx="12" fill="#0F1320" stroke="#22C55E" stroke-opacity="0.3" stroke-width="1"/>
    <text x="650" y="252" font-family="'JetBrains Mono', monospace" font-size="36" font-weight="700" fill="#4ADE80">~38<tspan font-size="20">K</tspan></text>
    <text x="650" y="288" font-family="'Plus Jakarta Sans', sans-serif" font-size="13" font-weight="500" fill="#A1A1AA">LOC · Go + TS</text>
    <text x="650" y="306" font-family="'JetBrains Mono', monospace" font-size="10" fill="#52525B">31K Go · 7.2K TS</text>
  </g>

  <g filter="url(#shadow)">
    <rect x="850" y="220" width="200" height="100" rx="12" fill="#0F1320" stroke="#EC4899" stroke-opacity="0.3" stroke-width="1"/>
    <text x="870" y="252" font-family="'JetBrains Mono', monospace" font-size="36" font-weight="700" fill="#F472B6">98<tspan font-size="20">+</tspan></text>
    <text x="870" y="288" font-family="'Plus Jakarta Sans', sans-serif" font-size="13" font-weight="500" fill="#A1A1AA">FAANG-driven commits</text>
    <text x="870" y="306" font-family="'JetBrains Mono', monospace" font-size="10" fill="#52525B">6 sprints · 12-layer audit</text>
  </g>

  <!-- Capability stack -->
  <g transform="translate(190, 380)">
    <text x="0" y="0" font-family="'JetBrains Mono', monospace" font-size="12" font-weight="700" fill="#717D96" letter-spacing="1">ENGINEERED FOR THE AGENT ERA</text>

    <g transform="translate(0, 24)">
      <rect width="280" height="48" rx="8" fill="#0F1320" stroke="#3B82F6" stroke-opacity="0.25"/>
      <circle cx="22" cy="24" r="8" fill="#3B82F6" fill-opacity="0.18"/>
      <path d="M22 20 v 8 M18 24 h 8" stroke="#3B82F6" stroke-width="2"/>
      <text x="42" y="30" font-family="'Plus Jakarta Sans', sans-serif" font-size="14" font-weight="600" fill="#FAFAFA">AWS Cedar</text>
      <text x="140" y="30" font-family="'JetBrains Mono', monospace" font-size="11" fill="#717D96">policy-as-code</text>
    </g>

    <g transform="translate(300, 24)">
      <rect width="280" height="48" rx="8" fill="#0F1320" stroke="#8B5CF6" stroke-opacity="0.25"/>
      <circle cx="22" cy="24" r="8" fill="#8B5CF6" fill-opacity="0.18"/>
      <path d="M14 24 h 16 M22 16 v 16" stroke="#8B5CF6" stroke-width="2"/>
      <text x="42" y="30" font-family="'Plus Jakarta Sans', sans-serif" font-size="14" font-weight="600" fill="#FAFAFA">GraphRAG</text>
      <text x="140" y="30" font-family="'JetBrains Mono', monospace" font-size="11" fill="#717D96">AI copilot · Neo4j</text>
    </g>

    <g transform="translate(600, 24)">
      <rect width="290" height="48" rx="8" fill="#0F1320" stroke="#14B8A6" stroke-opacity="0.25"/>
      <circle cx="22" cy="24" r="8" fill="#14B8A6" fill-opacity="0.18"/>
      <path d="M18 24 l 3 3 l 6 -6" stroke="#14B8A6" stroke-width="2" fill="none"/>
      <text x="42" y="30" font-family="'Plus Jakarta Sans', sans-serif" font-size="14" font-weight="600" fill="#FAFAFA">NHI governance</text>
      <text x="160" y="30" font-family="'JetBrains Mono', monospace" font-size="11" fill="#717D96">5-min JIT JWTs</text>
    </g>

    <g transform="translate(0, 84)">
      <rect width="280" height="48" rx="8" fill="#0F1320" stroke="#22C55E" stroke-opacity="0.25"/>
      <circle cx="22" cy="24" r="8" fill="#22C55E" fill-opacity="0.18"/>
      <path d="M14 24 h 16 M18 20 l 8 8" stroke="#22C55E" stroke-width="2" fill="none"/>
      <text x="42" y="30" font-family="'Plus Jakarta Sans', sans-serif" font-size="14" font-weight="600" fill="#FAFAFA">Temporal</text>
      <text x="140" y="30" font-family="'JetBrains Mono', monospace" font-size="11" fill="#717D96">11 workflows</text>
    </g>

    <g transform="translate(300, 84)">
      <rect width="280" height="48" rx="8" fill="#0F1320" stroke="#EC4899" stroke-opacity="0.25"/>
      <circle cx="22" cy="24" r="8" fill="#EC4899" fill-opacity="0.18"/>
      <path d="M16 28 l 4 -8 l 4 4 l 4 -10" stroke="#EC4899" stroke-width="2" fill="none"/>
      <text x="42" y="30" font-family="'Plus Jakarta Sans', sans-serif" font-size="14" font-weight="600" fill="#FAFAFA">NATS JetStream</text>
      <text x="160" y="30" font-family="'JetBrains Mono', monospace" font-size="11" fill="#717D96">event-driven core</text>
    </g>

    <g transform="translate(600, 84)">
      <rect width="290" height="48" rx="8" fill="#0F1320" stroke="#EF4444" stroke-opacity="0.25"/>
      <circle cx="22" cy="24" r="8" fill="#EF4444" fill-opacity="0.18"/>
      <path d="M22 16 a 8 8 0 1 0 0 16 a 8 8 0 1 0 0 -16 M22 20 v 4 l 3 3" stroke="#EF4444" stroke-width="1.5" fill="none"/>
      <text x="42" y="30" font-family="'Plus Jakarta Sans', sans-serif" font-size="14" font-weight="600" fill="#FAFAFA">AES-256 vault</text>
      <text x="160" y="30" font-family="'JetBrains Mono', monospace" font-size="11" fill="#717D96">SHA-256 audit chain</text>
    </g>
  </g>

  <!-- Footer -->
  <rect x="0" y="600" width="1280" height="2" fill="url(#divider)"/>
  <text x="80" y="625" font-family="'JetBrains Mono', monospace" font-size="12" fill="#52525B">github.com/ShoaibsProjects/GenID</text>
  <text x="1200" y="625" font-family="'JetBrains Mono', monospace" font-size="12" fill="#52525B" text-anchor="end">Go 1.25 · Next.js 14 · Postgres · Neo4j · Cedar · v1.0.0</text>
</svg>
